<svg width="44" height="44" viewBox="0 0 44 44" fill="none" xmlns="http://www.w3.org/2000/svg">
<path d="M44 22C44 9.84974 34.1503 0 22 0C9.84974 0 0 9.84974 0 22C0 34.1503 9.84974 44 22 44C34.1503 44 44 34.1503 44 22Z" fill="#1A1A1C"/>
<path d="M20.0207 23.666L22.5837 26.229L20.0207 28.792L17.4576 26.229L20.0207 23.666Z" fill="#F5F5F7"/>
<path d="M26.0618 23.666L28.6248 26.229L26.0618 28.792L23.4987 26.229L26.0618 23.666Z" fill="#F5F5F7"/>
<path d="M29.6864 16.416L32.2494 18.979L29.6864 21.542L27.1233 18.979L29.6864 16.416Z" fill="#F5F5F7"/>
<path d="M32.1029 14L34.6659 16.563L32.1029 19.126L29.5398 16.563L32.1029 14Z" fill="#F5F5F7"/>
<path d="M29.8947 21.457L32.4577 24.02L29.8947 26.583L27.3315 24.02L29.8947 21.457Z" fill="#F5F5F7"/>
<path d="M32.3111 23.873L34.8741 26.436L32.3111 28.999L29.748 26.436L32.3111 23.873Z" fill="#F5F5F7"/>
<path d="M11.5631 23.666L14.1261 26.229L11.5631 28.792L9 26.229L11.5631 23.666Z" fill="#F5F5F7"/>
<path d="M11.5631 18.832L14.1261 21.395L11.5631 23.958L9 21.395L11.5631 18.832Z" fill="#F5F5F7"/>
<path d="M22.5836 16.563L20.0206 19.1261L17.4576 16.563L20.0206 14L22.5836 16.563Z" fill="#F5F5F7"/>
<path d="M28.6247 16.563L26.0617 19.1261L23.4987 16.563L26.0617 14L28.6247 16.563Z" fill="#F5F5F7"/>
<path d="M11.5631 14L14.1261 16.563L11.5631 19.126L9 16.563L11.5631 14Z" fill="#F5F5F7"/>
<path d="M17.7507 21.395L15.1877 23.9582L12.6247 21.395L15.1877 18.832L17.7507 21.395Z" fill="#F5F5F7"/>
<path d="M22.5836 21.395L20.0206 23.9582L17.4576 21.395L20.0206 18.832L22.5836 21.395Z" fill="#F5F5F7"/>
<path d="M28.6247 21.395L26.0617 23.9582L23.4987 21.395L26.0617 18.832L28.6247 21.395Z" fill="#F5F5F7"/>
</svg>
