<svg width="198" height="44" viewBox="0 0 198 44" fill="none" xmlns="http://www.w3.org/2000/svg">
<g clip-path="url(#clip0_481_304)">
<path d="M44 22C44 9.84974 34.1503 0 22 0C9.84974 0 0 9.84974 0 22C0 34.1503 9.84974 44 22 44C34.1503 44 44 34.1503 44 22Z" fill="#1A1A1C"/>
<path d="M20.0207 23.666L22.5837 26.229L20.0207 28.792L17.4576 26.229L20.0207 23.666Z" fill="#F5F5F7"/>
<path d="M26.0618 23.666L28.6248 26.229L26.0618 28.792L23.4987 26.229L26.0618 23.666Z" fill="#F5F5F7"/>
<path d="M29.6864 16.416L32.2494 18.979L29.6864 21.542L27.1233 18.979L29.6864 16.416Z" fill="#F5F5F7"/>
<path d="M32.1029 14L34.6659 16.563L32.1029 19.126L29.5398 16.563L32.1029 14Z" fill="#F5F5F7"/>
<path d="M29.8947 21.457L32.4577 24.02L29.8947 26.583L27.3315 24.02L29.8947 21.457Z" fill="#F5F5F7"/>
<path d="M32.3111 23.873L34.8741 26.436L32.3111 28.999L29.748 26.436L32.3111 23.873Z" fill="#F5F5F7"/>
<path d="M11.5631 23.666L14.1261 26.229L11.5631 28.792L9 26.229L11.5631 23.666Z" fill="#F5F5F7"/>
<path d="M11.5631 18.832L14.1261 21.395L11.5631 23.958L9 21.395L11.5631 18.832Z" fill="#F5F5F7"/>
<path d="M22.5836 16.563L20.0206 19.1261L17.4576 16.563L20.0206 14L22.5836 16.563Z" fill="#F5F5F7"/>
<path d="M28.6247 16.563L26.0617 19.1261L23.4987 16.563L26.0617 14L28.6247 16.563Z" fill="#F5F5F7"/>
<path d="M11.5631 14L14.1261 16.563L11.5631 19.126L9 16.563L11.5631 14Z" fill="#F5F5F7"/>
<path d="M17.7507 21.395L15.1877 23.9582L12.6247 21.395L15.1877 18.832L17.7507 21.395Z" fill="#F5F5F7"/>
<path d="M22.5836 21.395L20.0206 23.9582L17.4576 21.395L20.0206 18.832L22.5836 21.395Z" fill="#F5F5F7"/>
<path d="M28.6247 21.395L26.0617 23.9582L23.4987 21.395L26.0617 18.832L28.6247 21.395Z" fill="#F5F5F7"/>
<path d="M57.24 12.808C57.24 11.9973 57.496 11.3787 58.008 10.952C58.52 10.5253 59.2667 10.312 60.248 10.312V20.392H71.608V12.808C71.608 11.9973 71.864 11.3787 72.376 10.952C72.888 10.5253 73.6347 10.312 74.616 10.312V30.792C74.616 31.6027 74.36 32.2213 73.848 32.648C73.336 33.0747 72.5893 33.288 71.608 33.288V23.048H60.248V30.792C60.248 31.6027 59.992 32.2213 59.48 32.648C58.968 33.0747 58.2213 33.288 57.24 33.288V12.808ZM84.3958 33.288C82.5611 33.288 81.0784 32.7973 79.9478 31.816C78.8384 30.8347 78.2838 29.544 78.2838 27.944C78.2838 26.3227 78.8704 25.0213 80.0438 24.04C81.2171 23.0373 82.7638 22.536 84.6838 22.536C86.7318 22.536 88.4171 23.2613 89.7398 24.712L89.8678 24.584C89.6331 24.328 89.3664 24.0613 89.0678 23.784V22.44C89.0678 21.352 88.7264 20.5093 88.0438 19.912C87.3611 19.3147 86.3904 19.016 85.1318 19.016C82.8918 19.016 81.2918 19.9013 80.3318 21.672C79.9904 21.5013 79.7024 21.2773 79.4678 21C79.2544 20.7013 79.1478 20.4027 79.1478 20.104C79.1478 19.528 79.4358 18.984 80.0118 18.472C80.5878 17.9387 81.3451 17.512 82.2838 17.192C83.2438 16.872 84.2464 16.712 85.2917 16.712C87.3184 16.712 88.9078 17.2133 90.0598 18.216C91.2331 19.2187 91.8198 20.6053 91.8198 22.376V31.144C91.8198 31.8907 91.6064 32.4347 91.1798 32.776C90.7531 33.1173 90.0811 33.288 89.1638 33.288V31.784C89.6118 31.3147 89.8571 31.0373 89.8998 30.952L89.7718 30.824C88.3851 32.4667 86.5931 33.288 84.3958 33.288ZM84.8758 31.08C86.1984 31.08 87.2331 30.8027 87.9798 30.248C88.7478 29.6933 89.1318 28.9253 89.1318 27.944C89.1318 26.9627 88.7584 26.184 88.0118 25.608C87.2651 25.032 86.2411 24.744 84.9398 24.744C83.7238 24.744 82.7638 25.032 82.0598 25.608C81.3771 26.1627 81.0358 26.9413 81.0358 27.944C81.0358 28.9467 81.3664 29.7253 82.0278 30.28C82.7104 30.8133 83.6598 31.08 84.8758 31.08ZM103.09 19.176C101.896 19.176 100.904 19.5387 100.114 20.264C99.3249 20.968 98.9303 21.832 98.9303 22.856V31.24C98.9303 31.944 98.6956 32.4667 98.2263 32.808C97.7783 33.128 97.0849 33.288 96.1463 33.288V19.08C96.1463 17.5013 97.0423 16.712 98.8343 16.712V18.664C98.4929 19.0267 98.2583 19.3467 98.1302 19.624L98.2583 19.752C99.6236 17.7253 101.33 16.712 103.378 16.712C104.146 16.712 104.733 16.904 105.138 17.288C105.544 17.6507 105.746 18.0987 105.746 18.632C105.746 19.016 105.65 19.3573 105.458 19.656C104.861 19.336 104.072 19.176 103.09 19.176ZM114.095 33.288C113.007 33.288 111.983 33.128 111.023 32.808C110.063 32.4667 109.284 31.9867 108.687 31.368C108.111 30.7493 107.823 30.024 107.823 29.192C107.823 28.168 108.441 27.6133 109.679 27.528C109.892 28.7227 110.393 29.608 111.183 30.184C111.993 30.7387 113.017 31.016 114.255 31.016C115.492 31.016 116.452 30.8347 117.135 30.472C117.817 30.1093 118.159 29.5547 118.159 28.808C118.159 28.2747 118.02 27.848 117.743 27.528C117.465 27.1867 117.017 26.8987 116.399 26.664C115.801 26.408 114.937 26.1627 113.807 25.928C112.399 25.608 111.279 25.2667 110.447 24.904C109.615 24.5413 108.975 24.0613 108.527 23.464C108.1 22.8667 107.887 22.0773 107.887 21.096C107.887 20.264 108.143 19.5173 108.655 18.856C109.167 18.1733 109.871 17.6507 110.766 17.288C111.684 16.904 112.719 16.712 113.871 16.712C114.937 16.712 115.94 16.8613 116.879 17.16C117.839 17.4587 118.607 17.8853 119.183 18.44C119.78 18.9947 120.079 19.6347 120.079 20.36C120.079 20.8507 119.887 21.2453 119.503 21.544C119.119 21.8213 118.585 21.9813 117.903 22.024C117.839 21.0853 117.455 20.3493 116.751 19.816C116.068 19.2613 115.108 18.984 113.871 18.984C112.847 18.984 112.036 19.176 111.439 19.56C110.841 19.944 110.543 20.456 110.543 21.096C110.543 21.7787 110.82 22.2907 111.375 22.632C111.951 22.952 112.921 23.2613 114.286 23.56C116.527 24.008 118.169 24.6267 119.215 25.416C120.281 26.184 120.815 27.2827 120.815 28.712C120.815 30.1627 120.228 31.2933 119.055 32.104C117.881 32.8933 116.228 33.288 114.095 33.288ZM124.49 12.68C124.49 11.912 124.725 11.3253 125.194 10.92C125.663 10.5147 126.357 10.312 127.274 10.312V18.728C126.975 19.0693 126.741 19.368 126.57 19.624L126.698 19.752C127.359 18.856 128.191 18.1307 129.194 17.576C130.197 17 131.285 16.712 132.458 16.712C134.186 16.712 135.551 17.224 136.554 18.248C137.557 19.272 138.058 20.5947 138.058 22.216V31.24C138.058 31.944 137.823 32.4667 137.354 32.808C136.906 33.128 136.213 33.288 135.274 33.288V22.504C135.274 21.48 134.986 20.6693 134.41 20.072C133.834 19.4747 132.959 19.176 131.786 19.176C130.997 19.176 130.25 19.3467 129.546 19.688C128.863 20.008 128.309 20.456 127.882 21.032C127.477 21.5867 127.274 22.1947 127.274 22.856V31.24C127.274 31.944 127.039 32.4667 126.57 32.808C126.122 33.128 125.429 33.288 124.49 33.288V12.68ZM147.521 33.288C145.686 33.288 144.203 32.7973 143.073 31.816C141.963 30.8347 141.409 29.544 141.409 27.944C141.409 26.3227 141.995 25.0213 143.169 24.04C144.342 23.0373 145.889 22.536 147.809 22.536C149.857 22.536 151.542 23.2613 152.865 24.712L152.993 24.584C152.758 24.328 152.491 24.0613 152.193 23.784V22.44C152.193 21.352 151.851 20.5093 151.169 19.912C150.486 19.3147 149.515 19.016 148.257 19.016C146.017 19.016 144.417 19.9013 143.457 21.672C143.115 21.5013 142.827 21.2773 142.593 21C142.379 20.7013 142.273 20.4027 142.273 20.104C142.273 19.528 142.561 18.984 143.137 18.472C143.713 17.9387 144.47 17.512 145.409 17.192C146.369 16.872 147.371 16.712 148.417 16.712C150.443 16.712 152.033 17.2133 153.185 18.216C154.358 19.2187 154.945 20.6053 154.945 22.376V31.144C154.945 31.8907 154.731 32.4347 154.305 32.776C153.878 33.1173 153.206 33.288 152.289 33.288V31.784C152.737 31.3147 152.982 31.0373 153.025 30.952L152.897 30.824C151.51 32.4667 149.718 33.288 147.521 33.288ZM148.001 31.08C149.323 31.08 150.358 30.8027 151.105 30.248C151.873 29.6933 152.257 28.9253 152.257 27.944C152.257 26.9627 151.883 26.184 151.137 25.608C150.39 25.032 149.366 24.744 148.065 24.744C146.849 24.744 145.889 25.032 145.185 25.608C144.502 26.1627 144.161 26.9413 144.161 27.944C144.161 28.9467 144.491 29.7253 145.153 30.28C145.835 30.8133 146.785 31.08 148.001 31.08ZM159.271 19.08C159.271 17.5013 160.167 16.712 161.959 16.712V18.76C161.767 18.952 161.543 19.24 161.287 19.624L161.415 19.752C162.055 18.856 162.887 18.1307 163.911 17.576C164.935 17 166.045 16.712 167.239 16.712C168.967 16.712 170.333 17.224 171.335 18.248C172.338 19.272 172.839 20.5947 172.839 22.216V31.24C172.839 31.944 172.605 32.4667 172.135 32.808C171.687 33.128 170.994 33.288 170.055 33.288V22.504C170.055 21.48 169.767 20.6693 169.191 20.072C168.615 19.4747 167.741 19.176 166.567 19.176C165.778 19.176 165.031 19.3467 164.327 19.688C163.645 20.008 163.09 20.456 162.663 21.032C162.258 21.5867 162.055 22.1947 162.055 22.856V31.24C162.055 31.944 161.821 32.4667 161.351 32.808C160.903 33.128 160.21 33.288 159.271 33.288V19.08Z" fill="#1A1A1C"/>
</g>
<defs>
<clipPath id="clip0_481_304">
<rect width="198" height="44" fill="white"/>
</clipPath>
</defs>
</svg>
